# xmcd CD database file
#
# Track frame offsets:
#	150
#	12317
#	23521
#	36027
#	47470
#	61894
#	72521
#	83271
#	94528
#	108224
#	118604
#	132487
#	145792
#	158668
#	172642
#	184713
#	198891
#	211641
#	223641
#	236766
#	250510
#	264236
#	276332
#	290232
#	302840
#	316356
#	329460
#
# Disc length: 4568 seconds
#
# Revision: 0
# Processed by: cddbd v1.5.2PL0 Copyright (c) Steve Scherf et al.
# Submitted via: CDex 1.51
#
DISCID=6b11d61b
DTITLE=B.B. KING - Ladies - Gentlemen...(Thrre O'Cock Blues 1949-1956)
DYEAR=2012
DGENRE=Blues
TTITLE0=Miss Martha King
TTITLE1=When Your Baby Packs Up And Goes
TTITLE2=Got The Blues
TTITLE3=Take A Swing With Me
TTITLE4=B.B. Boogie
TTITLE5=Don't You Want A Man Like Me
TTITLE6=Fine Looking Woman
TTITLE7=She's Dynamite
TTITLE8=Three O'Clock Blues
TTITLE9=That Ain't The Way To Do It
TTITLE10=You Know I Love You
TTITLE11=Woke Up This Morning
TTITLE12=Please Love Me
TTITLE13=Blind Love
TTITLE14=The Woman I Love
TTITLE15=Whole Lotta' Love
TTITLE16=Everyday I Have The Blues
TTITLE17=Love You Baby(a.k.a. Take A Swing Whit Me)
TTITLE18=When My Heart Beats Like A Hamme
TTITLE19=You Upset Me Baby
TTITLE20=Sneakin' Around
TTITLE21=Shut Your Mouth
TTITLE22=Boogie Rock
TTITLE23=Ten Long Years
TTITLE24=Crxing Won't Help You
TTITLE25=Bad Luck
TTITLE26=Troubles, Troubles, Troubles
EXTD=YEAR: 2012
EXTT0=
EXTT1=
EXTT2=
EXTT3=
EXTT4=
EXTT5=
EXTT6=
EXTT7=
EXTT8=
EXTT9=
EXTT10=
EXTT11=
EXTT12=
EXTT13=
EXTT14=
EXTT15=
EXTT16=
EXTT17=
EXTT18=
EXTT19=
EXTT20=
EXTT21=
EXTT22=
EXTT23=
EXTT24=
EXTT25=
EXTT26=
PLAYORDER=
